<?xml version="1.0" encoding="utf-8"?>
<!-- Generator: Adobe Illustrator 23.1.1, SVG Export Plug-In . SVG Version: 6.00 Build 0)  -->
<svg version="1.1" id="Layer_1" xmlns="http://www.w3.org/2000/svg" xmlns:xlink="http://www.w3.org/1999/xlink" x="0px" y="0px"
	 viewBox="0 0 1920 1080" style="enable-background:new 0 0 1920 1080;" xml:space="preserve">
<style type="text/css">
	.st0{display:none;}
	.st1{display:inline;}
	.st2{fill:none;stroke:#FFFFFF;stroke-miterlimit:10;}
	.st3{fill:none;}
	.st4{enable-background:new    ;}
	.st5{fill:#FFFFFF;}
	.st6{font-family:'OpenSans-Light';}
	.st7{font-size:31.7289px;}
</style>
<g class="st0">
	<rect x="-6.38" y="-5.29" class="st1" width="1928.57" height="1090.48"/>
</g>
<g id="Layer_3" class="st0">
</g>
<g id="Layer_6">
</g>
<g id="Layer_7">
</g>
<path class="st2" d="M1304.59,488.79c0,0-39.79-20.64-44.21-60.42c-4.42-39.79-11.8-77.37-11.8-77.37s-38.32-44.95-17.68-86.95
	c20.64-42,58.95-56.73,74.41-45.68c11.06,3.68,2.22-26.52,105.37-31.68c39.79-5.16,81.79,7.36,81.79,7.36s29.48-12.52,71.47,18.42
	s25.06,83.99,22.84,91.37c-2.22,7.36,18.42,50.1,5.9,141.47c-3.68,21.36,52.31,79.57,56,83.99c3.68,4.42,85.47,126.73,61.89,181.26
	c-23.58,54.52-62.63,47.16-78.11-11.8s-18.42-120.84-18.42-120.84l-0.74,47.89c0,0,33.16,123.79,33.9,153.26
	c0.74,29.48,23.58,83.25-30.21,124.53c-53.05,28-120.11,14-126.73,5.9c-6.64-8.1-33.9-20.64-24.32-69.25
	c3.68-21.36,9.58-39.05,9.58-39.05l-11.8-12.52c0,0-18.42,36.84-32.42,33.9c0,0,5.16,78.11-33.16,96.53
	c-38.32,18.42-136.31,21.36-145.89-33.16c-10.32-37.58-14-51.58-3.68-67.79c7.36-15.48,10.32-45.68,10.32-45.68
	s-36.1,20.64-47.89-22.1c-11.8-42.74-14.74-97.25-4.42-127.47c10.32-30.21,35.37-69.25,62.63-87.69
	C1296.47,516.79,1302.37,506.47,1304.59,488.79z"/>
<path class="st2" d="M1380.72,313.67c0,0-9.34-8.84-27.02,6.38c-10.8,12.28-3.44,33.4,3.44,35.37c6.88,1.96,17.68,4.92,29.96-5.4
	C1399.38,339.71,1392.5,322.51,1380.72,313.67z"/>
<path class="st2" d="M1539.86,283.21c-9.45,2.57-13.98,16-5.9,35.86c5.4,13.26,19.16,14.24,23.58,10.8
	C1567.99,324.84,1566.14,279.53,1539.86,283.21z"/>
<path class="st2" d="M1461.16,367.21c0,0,32.05-4.42,36.1,13.63c4.05,18.05-9.58,29.11-19.16,29.11c-9.58,0-32.79-5.9-35.37-14.37
	C1440.15,387.1,1446.05,373.47,1461.16,367.21z"/>
<path class="st2" d="M1304.59,488.79c0,0,61.89,9.58,94.81-6.14c0,0,67.79,22.6,126.24-9.82c0,0,56,1.48,66.81-20.64"/>
<path class="st2" d="M1305.07,579.9c0,0-16.22,31.93-14.24,42.24c1.96,10.32,0.98,68.27,0,72.21c-0.98,3.94-5.4,73.67-31.93,78.11"
	/>
<path class="st2" d="M1463.73,788.66c0,0-68.27-16.22-81.05-32.91c-12.78-16.7-48.14-35.86-96.77-31.44"/>
<path class="st2" d="M1475.53,801.2c0,0,31.93-42.98,45.19-46.91c13.26-3.94,35.37-10.8,50.59-10.8s65.82-17.2,65.82-17.2"/>
<path class="st2" d="M1418.54,358.86c0,0-38.32,43.23-16.7,77.11c21.62,33.88,35.37,28.49,35.37,28.49"/>
<path class="st2" d="M1396.92,337.73c0,0,58.45-48.63,121.82-25.06"/>
<path class="st2" d="M1520.71,452.68c0,0,35.86-38.8,14.74-88.91"/>
<path class="st2" d="M1361.06,384.9c0,0-2.94,69.75,13.26,83.01"/>
<path class="st2" d="M1522.19,462.02c0,0,43.72-26.04,37.33-93.83"/>
<path class="st2" d="M1242.69,290.09c5.9-9.34,15.22-14.24,20.14-7.86c4.92,6.38,8.84-10.8,7.86-22.6"/>
<path class="st2" d="M1540.85,211.98c0,0,4.42,17.68,8.36,19.66c3.94,1.96,17.2,8.36,17.68,24.56"/>
<rect x="470.67" y="950.4" class="st3" width="148.02" height="45.67"/>
<g id="Layer_4">
	<path class="st2" d="M71.78,791.56c0,0,64.71-35.04,47.18-274.99l121.77,52.57c0,0,32.95-36.24,54.21-42.23
		c1.2-1.5-14.08-6.59-14.08-6.59s11.38-32.65,31.75-33.25l0.9-28.75c0,0,4.79-16.77,16.77-12.28c0,0,8.84-9.44,16.03-9.44
		c0,0,1.05-7.49,4.35-5.85c3.29,1.65,26.06,6.45,26.06,6.45l14.23-8.54c0,0,3.45-26.96,17.07-30.55c13.78-7.79,37.6-3.75,47.48,5.85
		c0,0,18.87,8.54,26.96,17.37c0,0,8.39-41.19,11.38-52.87c3-11.68,32.95-84.78,36.24-92.87s10.48-22.46,27.86-25.76
		c17.37-3.29,19.77-7.19,27.71-8.54c7.94-1.35,33.1-7.05,33.1-7.05s17.53-1.5,29.51,5.39c13.04,4.95,61.86,20.07,61.86,20.07
		s7.05,2.85,12.74,17.37c5.69,14.52,25.62,58.11,32.51,92.57c10.18,4.49,18.27,9.29,21.27,14.08c3,4.79,3.59-35.94,3.59-35.94
		s8.57-5.99,20.37-5.99c12.02,0,17.37,5.69,17.97,7.79c0.6,2.1,0,37.14,0,37.14s4.79-0.3,5.09,3.59c0.3,3.89,0,72.5,0,72.5
		s7.19,1.5,8.99,8.09s0,37.14,0,37.14s23.36,7.49,24.56,24.26c0,3.29-14.98-6.59-21.27-7.79c-2.1,6.29-1.5,20.37-1.5,25.16
		s33.85,12.28,33.85,12.28l7.49,6.89c0,0,10.48,3.89,10.78,10.18c8.39,3.59,61.7,51.52,17.37,135.7
		c-47.63,108.14-152.17,50.32-152.17,50.32l-20.67-7.79l0.6-3.59l-11.38-3.59l-0.9-8.09l-9.29-3l-0.3-8.99l-8.69-4.19l1.2-11.98
		l-7.49-1.8c0,0,2.4-10.18,3.59-11.38c1.2-1.2-6.29-7.19-6.29-7.19s2.1-6.59,3.59-8.09s-3.59-9.29-4.49-9.88
		c-0.9-0.6-21.87,6.29-21.87,6.29s26.06,86.28-41.63,144.39c-61.1,39.54-106.05,15.58-111.44,15.58l-38.8-17.15l-2.02-2.92
		l-9.88-4.05l-1.35-6.51l-5.39-1.12c0,0-21.05,47.92-62.38,73.1l-0.6,7.79l-46.13,35.94c0,0-29.35-8.39-28.75-14.38
		c0.6-5.99,10.78-14.38,10.78-14.38l-42.55-19.77l-19.17,5.99c0,0-38.94-11.98-37.74-16.17c1.2-4.19,6.59-10.18,7.79-11.98
		s-37.74-17.97-37.74-17.97l-22.76,7.79l-33.55-15.58l5.99-11.38l-32.95-17.37l-25.16,8.99L71.21,801
		C71.19,801,64.6,801.3,71.78,791.56z"/>
	<path class="st2" d="M539.1,280.21c0,0-9.44-0.46-15.28,18.43c-5.85,18.87-20.67,53.92-10.78,66.95l81.33,26.96
		c0,0,6.29-3.59,9.88-13.48S615.49,322,615.49,322s1.35-18.43-10.78-20.67C592.56,299.08,539.1,280.21,539.1,280.21z"/>
	<path class="st2" d="M606.05,307.16l0.46,19.33c0,0-2.7,8.54-13.48,10.78c-10.78,2.25-66.95,16.17-66.95,16.17
		s-7.64-2.25-7.19-16.17c0.46-13.92,20.67-52.57,20.22-57.07"/>
	<path class="st2" d="M646.03,316.61c0,0-5.39-21.12,14.38-24.26c19.77-3.15,45.83-8.99,45.83-8.99s7.19-5.85,11.68,15.28
		c4.49,21.12,13.48,48.52,9.88,67.41c0,11.68-4.49,8.99-13.48,11.24c-8.99,2.25-63.36,15.28-63.36,15.28s-2.7,3.59-5.39-4.05
		C642.88,380.86,648.73,325.14,646.03,316.61z"/>
	<path class="st2" d="M390.96,428.64c0,0,58.26-26.81,61.4-25.76"/>
	<path class="st2" d="M443.38,481.96l32.8-22.92c0,0,15.73-20.67,6.29-37.74"/>
	<path class="st2" d="M554.82,442.86c0,0-9.44-9.44-29.21-1.8c-19.77,7.64-79.09,43.59-79.09,43.59l-29.21-10.78"/>
	<path class="st2" d="M376.73,437.17c0,0,22.62,5.25,23.52,8.39c0.9,3.15,9.88,1.8,9.88,1.8l-1.8,8.54l8.99,4.49
		c0,0,5.39,6.29-0.9,9.44c-1.8,4.05,12.58,30.11-23.36,30.11c-4.05,1.24-4.38,6.07-6.17,8.31c-1.8,2.25-13.82-2.81-13.93-4.49
		c-0.12-1.68-29.17-8.61-29.17-8.61s-2.4-3.29-3-5.69c-0.6-2.4-11.68-3.59-11.68-3.59s-3.59-5.69,1.5-7.79
		c5.09-2.1-4.79-5.09-5.99-14.38c-1.2-9.29,5.69-17.67,5.69-17.67"/>
	<path class="st2" d="M399.79,453.2c0,0-39.24,14.38-16.17,43.13"/>
	<path class="st2" d="M402.8,463.39c0,0-24.86,5.69-11.38,27.26c12.28,5.69,20.67-10.78,20.37-14.68S411.19,468.78,402.8,463.39z"/>
	<path class="st2" d="M398.6,489.45c0,0,10.18-9.88,5.69-23.06"/>
	<path class="st2" d="M452.37,455.44c0,0,22.17-11.38,8.24-31.75"/>
	<path class="st2" d="M451.77,427.45c-4.05,3.29-11.24,21.72-3,26.96c8.24,5.25,20.52-4.79,22.17-8.24s10.18-21.57-6.15-23.96
		C459.41,422.05,455.82,424.15,451.77,427.45z"/>
	<path class="st2" d="M458.89,809.98c0,0,4.12-8.39,11.3-54.51s-52.12-96.46-53.92-112.64c-1.8-16.17,13.78-109.64,31.75-131.81
		c17.97-22.17,96.46-60.5,96.46-60.5s-23.96,49.12-19.77,71.3l-42.53,7.79c0,0-40.14,93.47-38.34,123.42s6.59,33.55,6.59,33.55"/>
	<path class="st2" d="M449.83,657.2l11.38,2.4l10.18-61.7l74.9,23.96c0,0,10.18-37.14,43.73-38.94c23.36-5.99,36.54-8.99,36.54-8.99
		l12.58,57.51c0,0,17.97,8.39,32.95,0c13.18-4.79,27.56-7.79,27.56-7.79s11.38,1.8,12.58-1.8c1.2-3.59,5.99-61.1,17.37-64.11
		c11.38-3,26.96,7.79,26.96,7.79s30.55-59.31,79.39-41.04"/>
	<path class="st2" d="M329.11,485.85c0,0-23.66,32.95-21.27,109.64"/>
	<line class="st2" x1="294.96" y1="526.89" x2="310.83" y2="535.58"/>
	<path class="st2" d="M409.69,533.78l-10.18,57.51c0,0-62.3-27.56-69.5-26.96c-7.19,0.6-0.6-56.91,8.39-55.71
		c6.38,0.85,39.71,13.21,58.46,20.28C404.47,531.77,409.69,533.78,409.69,533.78z"/>
	<line class="st2" x1="382.12" y1="581.12" x2="396.5" y2="534.98"/>
	<path class="st2" d="M411.49,650.61c0,0-15.58-14.38-17.97-23.96c-2.4-9.58-123.42-35.94-152.77-57.51"/>
	<path class="st2" d="M84.96,790.2c0,0,106.05-40.74,125.82-94.66s5.69-90.17-91.81-178.99"/>
	<path class="st2" d="M389.31,632.64c0,0,14.98,97.66-31.75,283.38"/>
	<path class="st2" d="M556.47,525.39c0,0-2.4-68.31,22.17-71.9c24.56-3.59,38.94,59.31,38.94,59.31"/>
	<path class="st2" d="M557.07,536.77c0,0,22.17,0,19.17,42.53"/>
	<path class="st2" d="M585.23,533.18c0,0,14.98,9.58,12.58,40.14"/>
	<path class="st2" d="M621.77,506.82c0,0,31.75-0.6,31.15,33.55c-0.6,34.15,3,55.11,3,55.11s-4.79-29.35-29.35-21.57"/>
	<path class="st2" d="M679.29,491.24c0,0,31.75-2.4,31.15,28.75c-0.6,31.15-1.2,95.26-1.2,95.26l-6.59,3.59l-4.19-29.35l-26.96,5.39
		l-1.8-27.56l27.56-5.99c0,0,1.8-30.55-3.59-30.55s-31.15,2.4-31.15,2.4l0.6-23.36l22.17-7.19L679.29,491.24z"/>
	<path class="st2" d="M653.52,499.03l-20.37-4.19l0.6-47.33c0,0,7.19-40.14,33.55-46.73c26.36-6.59,68.31-23.96,68.31-23.96
		l19.77-7.19"/>
	<path class="st2" d="M776.64,383.7c0,0,20.37,31.75,14.98,82.08l-94.36,28.75"/>
	<path class="st2" d="M822.33,389.25c0,0-29.05,5.85-42.39,1.2"/>
	<path class="st2" d="M823.68,462.79c0,0-13.78,8.54-32.05,3"/>
	<path class="st2" d="M729.61,555.2c0,0,12.8-43.37,45.83-49.42c13.93-2.47,49.5-4.27,57.21,2.25"/>
	<path class="st2" d="M835.21,551.01c0,0-38.64-14.68-76.39,21.27c-37.74,35.94-55.71,44.93-62,106.49"/>
	<path class="st2" d="M860.82,596.54c0,0,48.08,4.95,45.39,64.26c-4.49,51.22-32.8,77.29-40.44,83.13
		c-7.64,5.85-44.49,25.62-67.85-2.7s-9.88-76.39-5.39-88.52C797.02,640.58,827.57,594.74,860.82,596.54z"/>
	<path class="st2" d="M658.17,721.91c0,0,0-76.84-71.44-55.27c-66.51,46.73-57.97,95.71-55.71,109.18
		c2.25,13.48,13.93,70.55,74.14,42.69C656.82,787.96,657.71,738.54,658.17,721.91z"/>
	<path class="st2" d="M451.03,693.15c0,0,2.7-17.53,6.75-22.46c4.05-4.95,4.49-12.58,11.24-13.93c6.75-1.35,1.8-6.75,1.8-6.75
		s-2.7-8.99,6.75-6.29c9.44,2.7,6.29-8.09,6.29-8.09s0-6.75,7.64-6.75s8.09-6.29,8.09-6.29s0.9-10.34,10.78-8.99"/>
	<path class="st2" d="M557.07,607.48c0,0,25.76-0.6,49.72,10.48c5.99,3,30.25,17.37,35.34,23.06c5.09,5.69,26.06,21.87,27.26,40.74"
		/>
	<path class="st2" d="M545.09,845.93c0,0-58.11-27.56-52.72-96.46c5.39-68.9,72.5-110.84,79.09-112.04
		c6.59-1.2,57.51-21.57,86.28,20.37"/>
	<path class="st2" d="M802.71,777.02c0,0-68.9-8.39-51.52-94.66c13.18-73.7,54.51-109.64,94.66-110.84
		c40.14-1.2,29.95-2.7,29.95-2.7"/>
</g>
<g id="Layer_5">
</g>
<rect x="1330.86" y="990.4" class="st3" width="148.02" height="45.67"/>
<text transform="matrix(1 0 0 1 1309.9255 1017.5895)" class="st4"><tspan x="0" y="0" class="st5 st6 st7">Emotional Childs-Toy </tspan><tspan x="0" y="38.08" class="st5 st6 st7">Human Principle</tspan></text>
<rect x="399.62" y="990.4" class="st3" width="148.02" height="45.67"/>
<text transform="matrix(1 0 0 1 411.3611 1017.589)" class="st5 st6 st7">Childs toy</text>
</svg>
