<?xml version="1.0" encoding="utf-8"?>
<!-- Generator: Adobe Illustrator 23.1.1, SVG Export Plug-In . SVG Version: 6.00 Build 0)  -->
<svg version="1.1" xmlns="http://www.w3.org/2000/svg" xmlns:xlink="http://www.w3.org/1999/xlink" x="0px" y="0px"
	 viewBox="0 0 110 110" style="enable-background:new 0 0 110 110;" xml:space="preserve">
<style type="text/css">
	.st0{display:none;}
	.st1{display:inline;}
	.st2{fill:none;stroke:#FFFFFF;stroke-miterlimit:10;}
	.st3{fill:#FFFFFF;}
</style>
<g id="Layer_2" class="st0">
	<g id="UV6ChF_1_" class="st1">
		
			<image style="overflow:visible;" width="560" height="300" id="UV6ChF" xlink:href="621236F01D02693C.jpg"  transform="matrix(0.9334 0 0 0.9334 -206.8177 -85.2276)">
		</image>
	</g>
</g>
<g id="Layer_3" class="st0">
	<rect x="-11.75" y="-5.73" class="st1" width="142.41" height="117.36"/>
</g>
<g id="Layer_1">
	<circle class="st2" cx="54.67" cy="55.26" r="50"/>
	<path class="st3" d="M31.86,54.78c1.11-5.63,9.67-12.05,14.59-0.63c5.07,0.95-0.48-19.98-9.44-17.76
		C28.61,39.55,30.19,55.73,31.86,54.78z"/>
	<path class="st3" d="M62.71,54.78c1.11-5.63,9.67-12.05,14.59-0.63c5.07,0.95-0.48-19.98-9.44-17.76
		C59.45,39.55,61.04,55.73,62.71,54.78z"/>
	<path class="st3" d="M29.48,67.7c0,0,5.55,8.72,24.58,9.2s23.63-8.72,23.63-8.72s0.42,15.38-23.15,15.38
		C32.55,83.56,27.26,68.34,29.48,67.7z"/>
</g>
</svg>
