<?xml version="1.0" encoding="utf-8"?>
<!-- Generator: Adobe Illustrator 23.1.1, SVG Export Plug-In . SVG Version: 6.00 Build 0)  -->
<svg version="1.1" xmlns="http://www.w3.org/2000/svg" xmlns:xlink="http://www.w3.org/1999/xlink" x="0px" y="0px"
	 viewBox="0 0 1920 1080" style="enable-background:new 0 0 1920 1080;" xml:space="preserve">
<style type="text/css">
	.st0{display:none;}
	.st1{display:inline;}
	.st2{fill:none;stroke:#FFFFFF;stroke-miterlimit:10;}
</style>
<g id="Layer_2" class="st0">
	<rect x="-30.91" y="-80.45" class="st1" width="2011.36" height="1213.64"/>
</g>
<g id="Layer_1" class="st0">
	
		<image style="display:inline;overflow:visible;" width="2560" height="1600" xlink:href="../../Screen Shot 2019-10-17 at 9.34.08 AM.png"  transform="matrix(0.7585 0 0 0.7585 -10.9091 -66.8182)">
	</image>
</g>
<g id="Layer_3">
	<path class="st2" d="M308,290.03c0,0-22.84-27.12-6.98-55.67c15.86-27.28,50.11-15.22,57.73-10.78
		c7.61,4.44,26.64,19.03,23.47,40.6c-9.52,26.01-15.22,28.55-15.86,52.65c-0.63,24.11-15.22,437.71-15.22,449.13
		s2.54,26.01,2.54,26.01l-6.34,0.63c0,0,6.34,20.93,26.01,31.08c20.3,20.3,7.61,62.8,2.54,72.32c-5.07,9.52-20.3,22.84-22.84,12.69
		c-2.54-10.15,1.9-62.17-31.72-51.38s-25.37,33.62-16.49,60.9c-12.69,15.22-33.62-6.34-36.79-11.42c0,0-27.28-45.04-3.81-64.07
		c23.47-19.03,27.28-47.58,27.91-49.48s-5.71-1.27-5.71-1.27s1.27-2.54,3.81-43.77s17.13-435.81,17.13-435.81L308,290.03z"/>
	<path class="st2" d="M311.17,258.47c0,0,2.54-15.86,5.71-17.44c3.17-1.59,10.15-7.3,11.1-8.56s16.81-2.54,19.98-4.44
		c3.17-1.9,7.61,7.93,7.61,7.93l9.2,10.15c0,0-3.81,10.78-2.85,12.37c0.95,1.59,3.81,4.44,3.81,4.44l-3.81,9.2l-6.34,4.76
		l-7.93,5.07c0,0-5.71,3.49-6.66,3.49s-18.4,0.63-18.4,0.63l-3.81-8.56l-6.03-4.76l1.59-8.56L311.17,258.47z"/>
	<path class="st2" d="M532.57,405.64c0,0,10.15-46.31,50.11-43.14c39.96,3.17,47.58,45.04,47.58,45.04l-19.67,393.94
		c0,0,0.63,32.99-36.16,29.81c-29.81-1.27-30.45-20.93-30.45-27.28C543.98,797.67,532.57,405.64,532.57,405.64z"/>
	<path class="st2" d="M567.46,399.3c0-4.65,2.75-12.9,14.8-12.26c7.61,0.63,12.05,4.65,12.69,13.74
		c-0.63,6.34-8.46,13.32-15.44,11.42C572.53,410.29,567.88,407.12,567.46,399.3z"/>
	<line class="st2" x1="543.35" y1="788.79" x2="609.96" y2="789.43"/>
	<path class="st2" d="M715.26,293.36c0,0,9.52-41.87,48.21-37.43c38.7,4.44,45.67,39.33,45.04,41.23
		c-0.63,1.9-31.72,384.42-31.72,384.42s0,35.52-31.08,34.89c-31.08-0.63-33.62-27.91-32.35-32.99
		C714.63,678.41,715.26,293.36,715.26,293.36z"/>
	<path class="st2" d="M762.42,276.44c9.73,0,15.22,8.67,14.17,16.92c0,0,0.85,13.32-13.74,13.32s-16.07-9.3-16.07-13.74
		C746.77,283.63,752.69,276.44,762.42,276.44z"/>
	<path class="st2" d="M712.09,674.61c0,0,39.33-6.98,64.7,1.27"/>
	<path class="st2" d="M1000.09,656.21l6.98,235.35c0,0,6.98,38.06,52.02,37.43s50.75-33.62,53.92-38.7
		c3.17-5.07-7.61-241.69-7.61-241.69S1031.17,637.82,1000.09,656.21z"/>
	<path class="st2" d="M1010.87,431.65l5.07,216.95c0,0,55.82-5.71,76.76-1.9c-1.27-56.46-3.81-194.75-4.44-214.41
		c-15.54-8.25-23.47-11.74-38.06-11.74C1035.61,420.55,1024.51,424.35,1010.87,431.65z"/>
	<path class="st2" d="M1010.87,438.63c-3.17,0-3.81-4.44-6.98-8.25c-3.17-3.81-1.9-113.55,1.27-137.66
		c3.17-24.11-6.98-20.93-6.98-20.93s-28.33,12.05-30.87-8.25c-2.54-20.3-2.11-71.89,2.33-74.22c4.44-2.33,52.65,0.63,52.65,0.63
		s18.61,5.5,26.22,5.5s19.45-6.13,25.8-6.77c6.34-0.63,42.5,1.27,42.5,1.27s8.88,2.54,7.61,16.49c2.54,13.32-0.63,36.16-2.54,47.58
		c-2.33,4.86-16.7-1.48-23.05,2.75c-6.34,4.23,7.19,9.73-6.34,40.18c2.54,20.72,5.5,22.84,5.5,39.75c0,16.92-4.23,26.22-3.81,47.37
		c0.42,21.15,7.61,54.13-5.92,48.21"/>
	<path class="st2" d="M1008.34,263.12c0,0,32.99-27.49,42.71-25.8c12.69,0,38.06,16.92,43.14,24.11"/>
	<path class="st2" d="M1811.44,732.34c0,0,18.4,17.13,2.54,27.91c-16.49,5.07-142.1,12.69-142.1,12.69l24.11,60.26
		c0,0,13.32,33.62-14.59,28.55c-27.91-5.07-59,3.59-64.07,4.86c-5.07,1.27-40.18-56.25-43.14-66.4s-56.25-82.89-56.67-87.12
		c-0.42-4.23-7.19-10.57-0.42-22.84c6.77-12.26,0.42-162.82,0-165.36c-0.42-2.54-56.25,69.78-178.89,26.64
		c-105.3-58.36-60.9-159.01-57.09-168.32s24.11-35.52,29.18-43.98c5.07-8.46,57.94-74.43,172.55-33.83
		c59.21,43.14,112.07,126.03,119.26,132.37c7.19,6.34,33.83,51.17,36.37,56.25c2.54,5.07,2.54,68.93,2.54,87.12
		s12.26,78.24,13.11,86.7s11.42,68.93,11.42,68.93L1811.44,732.34z"/>
	<path class="st2" d="M1577.99,542.24c0,0,21.57,29.18,21.15,61.74c-0.42,32.56,4.65,124.76,7.61,131.1
		c2.96,6.34,73.16,108.26,74.01,119.26c0.85,11-107-161.55-107-166.2s4.23-34.68,5.5-40.6c1.27-5.92,2.11-72.74-0.42-83.74
		c-2.54-11-3.81-72.74-6.34-87.96s-13.11-70.2-27.91-93.89s-65.13-82.47-109.53-77.39c-33.83-1.69-74.43-2.54-107.84,33.83
		c-33.41,36.37-37.64,76.55-35.95,81.2s-8.88,43.14,41.44,96.42c50.33,53.29,120.11,37.64,130.26,33.83s47.37-20.72,62.59-48.63
		c15.22-27.91,29.18-56.25,6.34-105.73c-22.84-49.48-65.55-74.43-99.81-72.74c-23.26-2.11-65.55-1.27-100.23,39.33
		c-43.56,50.33-4.65,126.45,7.61,134.48c12.26,8.04,28.33,35.52,85.85,41.02c57.52,5.5,96-47.37,103.61-64.7
		c12.69-17.76-3.81-93.46-46.52-119.26c-33.83-19.45-68.93-22.84-95.58-15.65c-26.64,7.19-59.63,42.29-60.05,82.89
		c-2.11,41.02,4.23,61.32,68.09,96.42c95.15,20.72,123.49-59.63,124.33-66.82c0.85-7.19-17.76-108.69-98.54-103.19
		c-74.01,10.15-74.43,55.4-73.16,80.35c1.27,24.95,16.07,79.93,82.04,78.66c65.97-1.27,71.89-54.55,67.67-82.04
		c-2.96-16.92-19.88-74.01-77.39-62.17c-57.94,6.34-57.52,35.52-57.52,61.32s21.15,75.7,65.13,69.78s68.09-19.88,62.17-59.63
		c-5.92-39.75-30.03-65.55-68.93-58.78c-38.91,6.77-52.02,21.57-46.1,54.55c5.92,32.99,22.41,55.4,55.4,54.98
		s55.4-27.07,51.17-54.13c-4.23-27.07-21.99-49.9-56.25-46.1c-34.26,3.81-39.33,26.64-39.75,46.94
		c0.85,18.18,13.53,39.75,46.52,38.48c32.99-1.27,39.75-25.8,39.33-35.1c-0.42-9.3-12.26-49.06-46.94-42.29s-26.22,42.71-19.88,46.1
		c5.92,10.15,32.56,27.07,41.44,7.61c8.88-19.45,5.92-35.52-14.8-34.68s-23.26,18.61-17.34,23.68c5.92,5.07,25.8,8.46,24.95-4.65"/>
</g>
</svg>
