<?xml version="1.0" encoding="utf-8"?>
<!-- Generator: Adobe Illustrator 23.1.1, SVG Export Plug-In . SVG Version: 6.00 Build 0)  -->
<svg version="1.1" xmlns="http://www.w3.org/2000/svg" xmlns:xlink="http://www.w3.org/1999/xlink" x="0px" y="0px"
	 viewBox="0 0 30 30" style="enable-background:new 0 0 30 30;" xml:space="preserve">
<style type="text/css">
	.st0{display:none;}
	.st1{display:inline;}
	.st2{fill:#010101;}
	.st3{fill:none;stroke:#FFFFFF;stroke-miterlimit:10;}
</style>
<g id="Layer_1" class="st0">
	<g class="st1">
		<path class="st2" d="M23.98,14.4h1.65c0.3,0,0.58-0.19,0.66-0.47c0.08-0.28,0.03-0.61-0.19-0.8L15.45,3.91L4.8,13.14
			c-0.22,0.19-0.3,0.5-0.22,0.8c0.08,0.3,0.39,0.47,0.69,0.47h1.65v11.01h6.61v-7.98h3.85v7.98h6.61V14.4z M22.88,24.31h-4.4v-7.98
			h-6.06v7.98h-4.4V13.3H6.29l9.17-7.95l9.17,7.95h-1.73V24.31z"/>
	</g>
</g>
<g id="Layer_2">
	<polygon class="st3" points="15.31,2.91 3.4,13.52 6.3,13.52 6.24,26.53 12.47,26.53 12.47,17.22 18.33,17.22 18.33,26.59 
		24.68,26.59 24.68,13.52 27.58,13.52 	"/>
</g>
</svg>
