<?xml version="1.0" encoding="utf-8"?>
<!-- Generator: Adobe Illustrator 23.1.1, SVG Export Plug-In . SVG Version: 6.00 Build 0)  -->
<svg version="1.1" xmlns="http://www.w3.org/2000/svg" xmlns:xlink="http://www.w3.org/1999/xlink" x="0px" y="0px"
	 viewBox="0 0 1920 1080" style="enable-background:new 0 0 1920 1080;" xml:space="preserve">
<style type="text/css">
	.st0{display:none;}
	.st1{display:inline;}
	.st2{fill:none;stroke:#FFFFFF;stroke-miterlimit:10;}
</style>
<g id="Layer_1" class="st0">
	<rect x="-6.38" y="-5.29" class="st1" width="1928.57" height="1090.48"/>
</g>
<g id="Layer_3" class="st0">
	
		<image style="display:inline;overflow:visible;" width="3024" height="4032" xlink:href="../../VCD/Wk12/Whitebear.jpg"  transform="matrix(0.2762 0 0 0.2762 497.6395 134.1117)">
	</image>
</g>
<g id="Layer_2">
	<path class="st2" d="M805.07,539.22c0,0-34.26-17.76-38.06-52.02s-10.15-66.61-10.15-66.61s-32.99-38.7-15.22-74.85
		s50.75-48.85,64.07-39.33c9.52,3.17,1.9-22.84,90.71-27.28c34.26-4.44,70.41,6.34,70.41,6.34s25.37-10.78,61.53,15.86
		c36.16,26.64,21.57,72.32,19.67,78.66s15.86,43.14,5.07,121.8c-3.17,18.4,45.04,68.51,48.21,72.32
		c3.17,3.81,73.59,109.11,53.29,156.05c-20.3,46.94-53.92,40.6-67.24-10.15s-15.86-104.04-15.86-104.04l-0.63,41.23
		c0,0,28.55,106.57,29.18,131.95c0.63,25.37,20.3,71.68-26.01,107.21c-45.67,24.11-103.4,12.05-109.11,5.07
		s-29.18-17.76-20.93-59.63c3.17-18.4,8.25-33.62,8.25-33.62l-10.15-10.78c0,0-15.86,31.72-27.91,29.18c0,0,4.44,67.24-28.55,83.1
		c-32.99,15.86-117.36,18.4-125.6-28.55c-8.88-32.35-12.05-44.41-3.17-58.36c6.34-13.32,8.88-39.33,8.88-39.33
		s-31.08,17.76-41.23-19.03c-10.15-36.79-12.69-83.74-3.81-109.74c8.88-26.01,30.45-59.63,53.92-75.49
		C798.09,563.33,803.17,554.45,805.07,539.22z"/>
	<path class="st2" d="M870.62,388.46c0,0-8.04-7.61-23.26,5.5c-9.3,10.57-2.96,28.76,2.96,30.45c5.92,1.69,15.22,4.23,25.8-4.65
		C886.69,410.87,880.77,396.07,870.62,388.46z"/>
	<path class="st2" d="M1007.64,362.23c-8.14,2.22-12.04,13.77-5.07,30.87c4.65,11.42,16.49,12.26,20.3,9.3
		C1031.86,398.08,1030.27,359.06,1007.64,362.23z"/>
	<path class="st2" d="M939.87,434.55c0,0,27.59-3.81,31.08,11.74c3.49,15.54-8.25,25.06-16.49,25.06s-28.23-5.07-30.45-12.37
		S926.87,439.94,939.87,434.55z"/>
	<path class="st2" d="M805.07,539.22c0,0,53.29,8.25,81.62-5.29c0,0,58.36,19.45,108.69-8.46c0,0,48.21,1.27,57.52-17.76"/>
	<path class="st2" d="M805.49,617.67c0,0-13.96,27.49-12.26,36.37s0.85,58.78,0,62.17s-4.65,63.44-27.49,67.24"/>
	<path class="st2" d="M942.09,797.41c0,0-58.78-13.96-69.78-28.33c-11-14.38-41.44-30.87-83.31-27.07"/>
	<path class="st2" d="M952.24,808.19c0,0,27.49-37,38.91-40.39c11.42-3.38,30.45-9.3,43.56-9.3s56.67-14.8,56.67-14.8"/>
	<path class="st2" d="M903.19,427.36c0,0-32.99,37.22-14.38,66.4s30.45,24.53,30.45,24.53"/>
	<path class="st2" d="M884.58,409.18c0,0,50.33-41.87,104.88-21.57"/>
	<path class="st2" d="M991.15,508.14c0,0,30.87-33.41,12.69-76.55"/>
	<path class="st2" d="M853.71,449.78c0,0-2.54,60.05,11.42,71.47"/>
	<path class="st2" d="M992.42,516.17c0,0,37.64-22.41,32.14-80.78"/>
	<path class="st2" d="M751.79,368.16c5.07-8.04,13.11-12.26,17.34-6.77c4.23,5.5,7.61-9.3,6.77-19.45"/>
	<path class="st2" d="M1008.49,300.91c0,0,3.81,15.22,7.19,16.92c3.38,1.69,14.8,7.19,15.22,21.15"/>
</g>
</svg>
