<?xml version="1.0" encoding="utf-8"?>
<!-- Generator: Adobe Illustrator 23.1.1, SVG Export Plug-In . SVG Version: 6.00 Build 0)  -->
<svg version="1.1" id="Layer_1" xmlns="http://www.w3.org/2000/svg" xmlns:xlink="http://www.w3.org/1999/xlink" x="0px" y="0px"
	 viewBox="0 0 1920 1080" style="enable-background:new 0 0 1920 1080;" xml:space="preserve">
<style type="text/css">
	.st0{display:none;}
	.st1{display:inline;}
	.st2{fill:none;stroke:#FFFFFF;stroke-miterlimit:10;}
	.st3{fill:none;}
	.st4{enable-background:new    ;}
	.st5{fill:#FFFFFF;}
	.st6{font-family:'OpenSans-Light';}
	.st7{font-size:31.7289px;}
</style>
<g class="st0">
	<rect x="-6.06" y="2.34" class="st1" width="1928.57" height="1090.48"/>
</g>
<g id="Layer_3">
</g>
<g id="Layer_6">
</g>
<g id="Layer_7">
</g>
<g>
	<path class="st2" d="M1308.32,489.84c0,0-39.04-20.24-43.37-59.27c-4.34-39.04-11.57-75.9-11.57-75.9s-37.59-44.1-17.34-85.3
		c20.24-41.2,57.83-55.66,73-44.81c10.85,3.61,2.18-26.02,103.36-31.08c39.04-5.06,80.23,7.22,80.23,7.22s28.92-12.28,70.11,18.07
		c41.2,30.35,24.58,82.4,22.4,89.63c-2.18,7.22,18.07,49.14,5.79,138.78c-3.61,20.95,51.32,78.06,54.93,82.4
		s83.85,124.32,60.72,177.81c-23.13,53.48-61.44,46.26-76.62-11.57c-15.18-57.83-18.07-118.55-18.07-118.55l-0.72,46.98
		c0,0,32.53,121.43,33.25,150.35s23.13,81.67-29.64,122.16c-52.04,27.47-117.82,13.73-124.32,5.79
		c-6.51-7.95-33.25-20.24-23.85-67.94c3.61-20.95,9.4-38.31,9.4-38.31l-11.57-12.28c0,0-18.07,36.14-31.8,33.25
		c0,0,5.06,76.62-32.53,94.69c-37.59,18.07-133.72,20.95-143.11-32.53c-10.12-36.86-13.73-50.59-3.61-66.5
		c7.22-15.18,10.12-44.81,10.12-44.81s-35.41,20.24-46.98-21.68s-14.46-95.4-4.34-125.04c10.12-29.64,34.7-67.94,61.44-86.02
		C1300.36,517.31,1306.15,507.19,1308.32,489.84z"/>
	<path class="st2" d="M1383.01,318.05c0,0-9.16-8.67-26.5,6.26c-10.6,12.05-3.37,32.76,3.37,34.7c6.75,1.92,17.34,4.82,29.39-5.3
		C1401.31,343.59,1394.57,326.72,1383.01,318.05z"/>
	<path class="st2" d="M1539.13,288.17c-9.27,2.52-13.72,15.7-5.79,35.18c5.3,13.01,18.79,13.97,23.13,10.6
		C1566.72,329.01,1564.91,284.56,1539.13,288.17z"/>
	<path class="st2" d="M1461.92,370.57c0,0,31.44-4.34,35.41,13.37c3.97,17.71-9.4,28.55-18.79,28.55s-32.16-5.79-34.7-14.1
		C1441.31,390.09,1447.1,376.72,1461.92,370.57z"/>
	<path class="st2" d="M1308.32,489.84c0,0,60.72,9.4,93.01-6.02c0,0,66.5,22.17,123.84-9.63c0,0,54.93,1.45,65.54-20.24"/>
	<path class="st2" d="M1308.8,579.22c0,0-15.91,31.33-13.97,41.43c1.92,10.12,0.96,66.98,0,70.84c-0.96,3.86-5.3,72.27-31.33,76.62"
		/>
	<path class="st2" d="M1464.44,784.01c0,0-66.98-15.91-79.51-32.29c-12.53-16.38-47.22-35.17-94.93-30.84"/>
	<path class="st2" d="M1476.01,796.31c0,0,31.33-42.16,44.33-46.02c13.01-3.86,34.7-10.6,49.63-10.6
		c14.93,0,64.56-16.87,64.56-16.87"/>
	<path class="st2" d="M1420.11,362.39c0,0-37.59,42.41-16.38,75.65s34.7,27.95,34.7,27.95"/>
	<path class="st2" d="M1398.9,341.65c0,0,57.34-47.71,119.51-24.58"/>
	<path class="st2" d="M1520.33,454.42c0,0,35.18-38.06,14.46-87.22"/>
	<path class="st2" d="M1363.73,387.93c0,0-2.89,68.43,13.01,81.43"/>
	<path class="st2" d="M1521.78,463.58c0,0,42.88-25.54,36.62-92.04"/>
	<path class="st2" d="M1247.61,294.92c5.79-9.16,14.93-13.97,19.76-7.71c4.82,6.26,8.67-10.6,7.71-22.17"/>
	<path class="st2" d="M1540.09,218.3c0,0,4.34,17.34,8.2,19.28c3.86,1.92,16.87,8.2,17.34,24.09"/>
</g>
<g id="Layer_4">
	<path class="st2" d="M441.64,313.88c0,0-20.63,1.59-26.99,23.02c0,0-41.28-23.02-42.87,20.63
		c-35.32,47.62-32.14,84.93-34.92,104.38c0,0-9.92,1.59-4.37,12.7c0,0-14.69,67.87-4.77,102c0,0-5.15,5.96,3.18,11.51
		c0,0-11.91,39.29,0.4,48.02c0,0,21.03-26.99,23.81-37.7c0,0-3.18-8.73-5.15-9.52c0,0,4.37-2.78,2.38-9.13
		c0,0,15.48-65.88,11.51-99.22l-3.13-2.38c0,0,3.13-1.99,0.48-7.27c0,0,32.41-37.57,41.94-99.08c0,0,8.33-3.57,10.32-9.52
		c0,0-3.18,48.81,10.32,71.43c0,0-8.33,12.7-0.4,28.18c0,0-22.22,33.33-11.51,84.93c0,0-9.13,11.51-1.19,25.8
		c0,0-32.14,41.67-27.39,143.66c0,0-4.77,1.99-2.78,9.92c0,0-19.84,21.82-20.24,50.4c-0.4,28.58-11.91,51.2-13.49,57.14
		c0,0-1.19,3.97,1.19,6.34c0,0-42.07,46.03-25.4,66.68c0,0,23.02,15.08,41.67-27.78c0,0,17.07-34.92,21.43-38.5l-7.93-9.13
		c0,0,32.94-67.87,32.54-92.08c0,0,2.38-13.1,0-17.07c0,0,9.52-23.81,13.49-44.44c3.97-20.63,21.82-62.31,18.66-96.83l-3.18-3.97
		c0,0,11.51-7.14,7.14-25h15.08c0,0-2.38,17.85,3.57,23.02c0,0-15.88,37.3,5.96,115.89c0,0-4.37,15.88,4.77,16.27
		c0,0-25-5.96,46.03,151.6c0,0-6.34,81.75,30.55,78.58c36.91-3.18,7.14-81.75-1.59-83.34c0,0,5.16,1.19,1.59-9.13
		c-3.57-10.32-19.44-57.94-22.22-72.62c-2.78-14.69-15.08-68.25-25-74.21c0,0,1.99-5.16-2.38-7.54c0,0,1.19-13.1,1.99-29.37
		c0.79-16.27,6.34-70.64-3.57-89.69c0,0,4.77-14.15-1.85-23.02c0,0,13.49-66.54-12.44-86.12c0,0,5.29-10.59,2.11-24.87
		c0,0,20.9-53.71,19.32-66.8c0,0,5.96,8.73,13.1,10.32c0,0,21.43,88.9,47.22,102c0,0-13.63,64.95-0.53,97.9
		c0,0-18.92,11.64-12.17,30.69c0,0,2.78,15.08,15.88,17.85c0,0,21.3,0.79,21.7-13.1s-4.23-32.94-4.23-32.94s5.56-9.26,6.34-15.48
		s11.37-34.92,3.44-76.46c0,0,1.06-12.96-5.03-16.14c0,0-18.26-48.95-19.32-59.53c-1.06-10.59-8.73-39.95-24.34-47.88
		c0,0,6.34-27.25-17.47-29.37c-23.81-2.11-23.29,10.59-23.29,10.59s-1.59-19.84-22.48-35.45c0,0,0.53-7.93-1.59-8.21
		c0,0,32.67-20.11,32.67-44.72s-8.73-53.18-48.02-53.58c-50.8,0-60.32,40.48-54.77,59.53c5.56,19.06,10.71,34.13,27.78,37.96
		C443.23,304.62,440.05,308.85,441.64,313.88z"/>
	<path class="st2" d="M443.23,304.62c0,0,24.34,10.59,41.4,1.06"/>
	<path class="st2" d="M441.64,313.88c0,0,17.19,20.24,45.51-0.26"/>
	<path class="st2" d="M371.79,357.53c0,0-1.33,10.06,31.36,14.29c20.77-16.93,11.51-34.92,11.51-34.92"/>
	<path class="st2" d="M509.63,349.06c0,0-2.92,16.67-1.33,21.56"/>
	<path class="st2" d="M521.4,380.94c0,0,16.54-11.51,28.97-13.1"/>
	<path class="st2" d="M598.26,489.29c0,0-18.26-9-29.63-6.34c-6.21,1.44,25.4-7.67,25.4-7.67"/>
	<path class="st2" d="M564.67,570.78c0,0,18.26-18.78,28.04,2.92"/>
	<path class="st2" d="M568.1,580.82c0,0,5.68-1.05,11.6-0.54c3.47,0.3,7.03,1.14,9.57,3.05"/>
	<line class="st2" x1="581.33" y1="562.83" x2="579.7" y2="580.29"/>
	<path class="st2" d="M461.48,551.98c0,0,22.75,4.23,37.84-3.57"/>
	<path class="st2" d="M465.05,575.01c0,0,10.99-22.48,36.11-3.57"/>
	<line class="st2" x1="481.06" y1="553.05" x2="481.59" y2="563.63"/>
	<path class="st2" d="M411.87,546.83c0,0,16.27,7.81,34.52,5.16"/>
	<path class="st2" d="M410.68,572.63c0,0,23.55,3.97,28.58,4.37"/>
	<path class="st2" d="M426.02,550.67c0,0-1.33,21.43,0,24.34"/>
	<path class="st2" d="M423.38,461.9c0,0,24.61,27.39,63.5,0.4"/>
	<path class="st2" d="M423.78,433.73c0,0,34,23.69,65.21,3.7"/>
	<path class="st2" d="M336.86,461.9c0,0,16.14,8.47,24.34,9"/>
	<path class="st2" d="M332.51,474.6c0,0,6.44,4.77,28.23,3.57"/>
	<path class="st2" d="M327.74,576.6c0,0,14.55,2.38,24.61,3.18"/>
	<path class="st2" d="M330.92,588.11c0,0,12.04,1.06,19.04,0.79"/>
	<path class="st2" d="M471,690.89c0,0,16.67-19.24,31.74-0.4"/>
	<path class="st2" d="M475.77,707.16c0,0,14.88,9.32,29.37-9.13"/>
	<path class="st2" d="M481.71,682.56c0,0-2.58,22.02,7.34,26.39"/>
	<path class="st2" d="M383.29,716.29c0,0,21.63,5.16,26.99,5.96"/>
	<path class="st2" d="M380.51,726.22c0,0,5.96,30.17,29.77,11.11"/>
	<path class="st2" d="M398.38,720.06c0,0-3.77,19.84-4.77,23.41"/>
	<path class="st2" d="M377.74,831.38c0,0-1.39,23.61-18.06,18.86c-16.67-4.75-11.71-10.12-11.71-10.12"/>
	<path class="st2" d="M522.59,862.14c0,0,11.71,12.1,19.44,6.94c7.73-5.16,13.1-7.54,8.73-15.08c0,0-6.34,3.38-10.12,5.36
		c-3.77,1.99-18.86-0.6-18.86-0.6"/>
	<line class="st2" x1="539.46" y1="861.74" x2="542.05" y2="869.08"/>
</g>
<g id="Layer_5">
</g>
<path class="st2" d="M419.8,225.38c0,0-7.93-31.74,26.59-17.47"/>
<path class="st2" d="M490.45,207.51c0,0,31.36-16.27,21.03,17.85"/>
<path class="st2" d="M437.27,247.6c0,0,0-7.14,5.96-6.34s9.92,0.79,9.13,5.96c-0.79,5.15-3.57,8.73-6.34,7.93
	C443.23,254.34,439.26,253.94,437.27,247.6z"/>
<path class="st2" d="M475.77,246.8c0,0,1.99-9.13,8.33-6.34c6.34,2.78,9.13,4.77,9.52,9.13c0.39,4.37-6.34,6.74-7.93,5.16
	C484.1,253.16,476.16,250.38,475.77,246.8z"/>
<path class="st2" d="M461.48,260.69c0,0-8.73,5.56-5.96,7.14s10.32,3.57,12.7,2.38C470.6,269.02,476.16,261.89,461.48,260.69z"/>
<polyline class="st2" points="464.77,272.6 465.17,277.37 459.22,281.33 "/>
<line class="st2" x1="469.94" y1="281.73" x2="465.17" y2="277.37"/>
<rect x="1330.86" y="990.4" class="st3" width="148.02" height="45.67"/>
<text transform="matrix(1 0 0 1 1309.9255 1017.5895)" class="st4"><tspan x="0" y="0" class="st5 st6 st7">Designed for cuddling</tspan><tspan x="0" y="38.08" class="st5 st6 st7">Fun-ctionality</tspan></text>
<rect x="399.62" y="990.4" class="st3" width="148.02" height="45.67"/>
<text transform="matrix(1 0 0 1 340.9066 1017.589)" class="st5 st6 st7">Fit for purpose</text>
</svg>
