<?xml version="1.0" encoding="utf-8"?>
<!-- Generator: Adobe Illustrator 23.1.1, SVG Export Plug-In . SVG Version: 6.00 Build 0)  -->
<svg version="1.1" id="Layer_1" xmlns="http://www.w3.org/2000/svg" xmlns:xlink="http://www.w3.org/1999/xlink" x="0px" y="0px"
	 viewBox="0 0 1920 1080" style="enable-background:new 0 0 1920 1080;" xml:space="preserve">
<style type="text/css">
	.st0{display:none;}
	.st1{display:inline;}
	.st2{fill:none;stroke:#FFFFFF;stroke-miterlimit:10;}
	.st3{fill:#FFFFFF;}
	.st4{font-family:'OpenSans-Light';}
	.st5{font-size:25px;}
	.st6{fill:none;}
	.st7{font-size:31.7289px;}
</style>
<g class="st0">
	<rect x="-6.38" y="-5.29" class="st1" width="1928.57" height="1090.48"/>
</g>
<g id="Layer_3" class="st0">
</g>
<g id="Layer_6">
	<path class="st2" d="M682.02,858.8c0,0,8.41,31.83,42.64,27.62c34.23-4.2,33.33-35.13,31.83-41.44s-13.81-33.33-39.63-30.02
		C691.02,818.27,679.91,833.28,682.02,858.8z"/>
	<path class="st2" d="M718.94,829.07c0,0,28.22,1.2,23.42,23.72c-4.8,22.52-22.52,23.72-36.92,16.21s-13.21-21.62-11.41-27.62
		C695.83,835.38,712.63,825.17,718.94,829.07z"/>
	<path class="st2" d="M717.29,846.78c0,0,0.3-4.65,4.06-3.76c3.76,0.9,3.76,3.91,3.15,5.11
		C723.9,849.34,718.79,851.89,717.29,846.78z"/>
	<path class="st2" d="M708.89,846.94c0,0,5.11-1.8,5.55,2.25c0.45,4.06-0.75,4.2-2.86,4.2s-5.26,0.15-5.26-1.5
		C706.33,850.24,707.69,846.94,708.89,846.94z"/>
	<path class="st2" d="M710.01,857.29c0,0,4.96-3,6.75,1.05c1.2,2.4,0,3.6-1.05,4.2c-1.05,0.59-3.45,1.5-5.4-0.3
		S708.81,858.34,710.01,857.29z"/>
	<path class="st2" d="M720.21,853.09c-0.42,0.34-1.8,4.5,1.8,5.7s5.11-0.3,5.55-2.1s-1.66-3.91-3.15-4.2
		C722.92,852.2,721.72,851.89,720.21,853.09z"/>
	<path class="st2" d="M730.25,762.22c0,0-23.62,33.82,23.62,48.84c36.22,9,43.23-29.42,43.03-32.22s-7.8-25.82-22.22-28.82
		C760.27,747.01,748.26,740.61,730.25,762.22z"/>
	<path class="st2" d="M738.45,763.02c0,0-9.61,26.02,18.61,34.43c18.61,5,32.62-14.41,30.63-21.02c0-7.21-1.8-19.01-21.02-23.42
		C754.87,751.21,744.26,755.21,738.45,763.02z"/>
	<path class="st2" d="M752.27,770.23c0,0,2.8-2.6,4.61-1.4c1.8,1.2,2.2,3.41,2.2,4.8s-4.41,3.21-5.61,1.8
		C752.27,774.03,751.27,772.83,752.27,770.23z"/>
	<path class="st2" d="M760.47,766.42c0,0,2.2-4,4.61-3c2.4,1,4.2,2.8,3.41,4.2c-0.79,1.4-4.2,4.41-5.2,3
		C762.28,769.23,759.88,767.62,760.47,766.42z"/>
	<path class="st2" d="M767.28,775.83c0,0,0.8-4.41,3.6-3c2.8,1.4,5,2.8,3.6,4.41c-1.4,1.6-2.6,2.6-4,1.6
		C769.08,777.84,767.28,775.83,767.28,775.83z"/>
	<path class="st2" d="M759.27,778.23c0,0,3-1.8,4.8,0.2c1.8,2.01,0.75,4.41-0.24,5.15c-1,0.75-4-0.05-4.5-0.59
		C758.83,782.43,756.37,779.23,759.27,778.23z"/>
</g>
<g id="Layer_7">
	<path class="st2" d="M166.9,895.29c0,0,40.53-58.24,53.15-71.76c12.61-13.51,40.83-50.44,40.83-50.44s12.3-13.51,13.81-14.41
		c1.5-0.9,8.41-4.2,3.91,4.13s-14.41,19.14-19.51,26.8C253.96,797.25,175,889.57,166.9,895.29z"/>
	<path class="st2" d="M265.45,818.72c0,0,42.25-46.73-16.78-50.34c-59.04-3.6-32.22-37.23-4.41-32.83
		c27.83,4.41,85.87,1.2,74.06,59.44s13.21,62.45,7.8,96.47"/>
	<path class="st2" d="M256.66,781.87c1.57,0.9,7.06-2.62,12.98-11.93c0,0,5.7-6.6,6.6-8.63s-0.75-1.73-4.65,1.73
		C267.7,766.49,255.09,780.97,256.66,781.87z"/>
</g>
<path class="st2" d="M1325.16,518c0,0-38.48-19.95-42.75-58.42c-4.27-38.48-11.41-74.81-11.41-74.81s-37.05-43.47-17.09-84.07
	c19.95-40.61,57-54.86,71.95-44.17c10.69,3.56,2.14-25.64,101.88-30.63c38.48-4.99,79.08,7.12,79.08,7.12s28.5-12.11,69.11,17.81
	s24.23,81.21,22.08,88.35c-2.14,7.12,17.81,48.44,5.7,136.79c-3.56,20.65,50.58,76.94,54.14,81.21s82.64,122.54,59.85,175.26
	c-22.8,52.71-60.56,45.6-75.53-11.41c-14.96-57-17.81-116.85-17.81-116.85l-0.71,46.31c0,0,32.06,119.69,32.77,148.19
	s22.8,80.5-29.22,120.41c-51.3,27.07-116.13,13.54-122.54,5.7c-6.42-7.83-32.77-19.95-23.51-66.96c3.56-20.65,9.26-37.76,9.26-37.76
	L1479,807.96c0,0-17.81,35.62-31.35,32.77c0,0,4.99,75.53-32.06,93.34c-37.05,17.81-131.8,20.65-141.06-32.06
	c-9.98-36.33-13.54-49.87-3.56-65.55c7.12-14.96,9.98-44.17,9.98-44.17s-34.9,19.95-46.31-21.37s-14.25-94.04-4.27-123.25
	c9.98-29.22,34.2-66.96,60.56-84.79C1317.32,545.08,1323.02,535.1,1325.16,518z"/>
<path class="st2" d="M1398.78,348.68c0,0-9.03-8.55-26.12,6.17c-10.44,11.87-3.33,32.29,3.33,34.2c6.65,1.9,17.09,4.75,28.97-5.22
	S1410.17,357.22,1398.78,348.68z"/>
<path class="st2" d="M1552.66,319.23c-9.14,2.49-13.52,15.47-5.7,34.67c5.22,12.82,18.52,13.77,22.8,10.44
	C1579.86,359.48,1578.07,315.67,1552.66,319.23z"/>
<path class="st2" d="M1476.56,400.44c0,0,30.99-4.27,34.9,13.18c3.92,17.45-9.26,28.14-18.52,28.14s-31.7-5.7-34.2-13.89
	C1456.25,419.68,1461.95,406.5,1476.56,400.44z"/>
<path class="st2" d="M1325.16,518c0,0,59.85,9.26,91.67-5.94c0,0,65.55,21.85,122.07-9.5c0,0,54.14,1.43,64.6-19.95"/>
<path class="st2" d="M1325.63,606.1c0,0-15.68,30.88-13.77,40.84c1.9,9.98,0.95,66.02,0,69.82c-0.95,3.81-5.22,71.24-30.88,75.53"/>
<path class="st2" d="M1479.04,807.96c0,0-66.02-15.68-78.37-31.83s-46.54-34.67-93.57-30.4"/>
<path class="st2" d="M1490.45,820.08c0,0,30.88-41.56,43.7-45.36c12.82-3.81,34.2-10.44,48.92-10.44s63.64-16.63,63.64-16.63"/>
<path class="st2" d="M1435.35,392.38c0,0-37.05,41.8-16.15,74.56s34.2,27.55,34.2,27.55"/>
<path class="st2" d="M1414.44,371.94c0,0,56.52-47.02,117.8-24.23"/>
<path class="st2" d="M1534.14,483.09c0,0,34.67-37.52,14.25-85.97"/>
<path class="st2" d="M1379.77,417.55c0,0-2.84,67.45,12.82,80.27"/>
<path class="st2" d="M1535.57,492.11c0,0,42.27-25.18,36.1-90.72"/>
<path class="st2" d="M1265.32,325.88c5.7-9.03,14.72-13.77,19.47-7.6c4.75,6.17,8.55-10.44,7.6-21.85"/>
<path class="st2" d="M1553.61,250.35c0,0,4.27,17.09,8.08,19.01c3.81,1.9,16.63,8.08,17.09,23.75"/>
<text transform="matrix(1 0 0 1 207.3679 586.6013)" class="st3 st4 st5">Stuffing</text>
<text transform="matrix(1 0 0 1 679.3357 586.6013)" class="st3 st4 st5">Fabric</text>
<text transform="matrix(1 0 0 1 207.3679 927.0662)" class="st3 st4 st5">Thread</text>
<text transform="matrix(1 0 0 1 679.3357 927.0662)" class="st3 st4 st5">Buttons</text>
<g id="Layer_4">
	<path class="st2" d="M93.6,313.56c8.04,4.94,23.9-22.49,37.95-19.67s50.6,0.7,55.52-2.81c4.92-3.51,37.25-18.97,47.79-22.49
		c10.54-3.51,22.49-35.84,29.52-39.36c7.03-3.51-4.92-9.13,4.92-7.73c9.84,1.41-9.13-25.3,14.75-11.24
		c23.88,14.05,33.03,23.2,33.03,23.2s-6.32-32.33,3.51-17.58c9.83,14.75,32.33-12.42,44.28,1.64c-5.62,2.58,18.58,5.95,5.62,18.04
		c-9.05,11.85,47.68,26.92,42.17,40.76c-4.62,11.6,24.14,25.49,27.41,40.06c78.01,102.61-10.31,80.82,9.36,115.49
		c10.54,26.01-24.83,102.37-58.57,93.24c0,0-17.58,38.65-47.79,19.67c0,0-61.15,37.25-63.26-16.16
		c-2.11-53.41-28.11-56.22-45.68-16.16c-17.58,40.06-72.39-6.32-75.9-14.76c-3.51-8.43-41.46-18.28-36.55-30.22
		c4.91-11.94,21.79-44.98,13.35-37.95s-48.49,33.03-63.26,2.11c-14.76-30.93,4.92-38.65,11.94-44.28
		c7.02-5.63-61.15,31.63-48.49-13.35S66.19,296.7,93.6,313.56z"/>
	<path class="st2" d="M256.65,322.71c0,0,58.34,64.66,33.74,106.83"/>
	<path class="st2" d="M96.41,354.32c0,0,94.17-53.41,109.64,20.39"/>
	<path class="st2" d="M305.85,473.81c0,0,1.41,40.06,23.2,53.41"/>
	<path class="st2" d="M275.63,239.06c0,0-26.71,26.71,12.65,51.3"/>
	<path class="st2" d="M172.31,302.32c0,0,47.09-4.92,47.79,19.67"/>
	<path class="st2" d="M155.45,472.4c0,0,23.2-85.04-14.05-75.9"/>
	<path class="st2" d="M323.42,340.97c0,0,48.49,7.73,47.79,39.36"/>
</g>
<g id="Layer_5">
	<path class="st2" d="M685.84,535.43c0,0,40.77,4.77,68.84-3.17c28.06-7.94,184.28-45.54,184.28-45.54s57.72-38.12-2.12-94.78
		c0,0,32.83,1.06,11.65-47.65s-143.51-69.38-160.98-63.55c-17.47,5.83-19.07,33.35-91.61,10.06c-11.65-4.77-47.65-19.59-71.49-4.23
		l-4.23,2.65c0,0-54.37-15.88-89.31,80.49c-4.23,51.54,20.83,73.08,26.12,77.66c5.29,4.6,8.12,9.89,20.12,19.42
		C589.12,476.3,671.72,507.72,685.84,535.43z"/>
	<path class="st2" d="M578.88,317.27c0,0,7.42-10.06,31.77-3.17c24.36,6.88,80.49,50.84,126.56,50.3
		c46.07-0.52,64.6-30.18,64.6-30.18s46.6-38.66,60.36-29.12c13.77,9.53,36.01,15.36,2.12,30.18"/>
	<path class="st2" d="M620.18,289.2c0,0,74.66,19.07,84.19,29.12c9.53,10.06,59.3,0.52,65.66-6.88c6.36-7.42,31.77-32.83,53.48-28.6
		"/>
	<path class="st2" d="M850.53,287.09c0,0-29.66,0.52-50.84,27.01c-21.18,26.47-36.54,15.36-43.42,34.42
		c-0.52,5.29,14.3-7.42,16.42-8.47"/>
	<path class="st2" d="M929.96,456.53c0,0,7.42-10.06-20.65-10.06c-28.06,0-128.67,20.65-190.1,35.48
		c-15.36-2.12,3.71-28.06,20.12-30.18c0,0,88.96-19.07,97.96-24.36c9-5.29,96.38-21.18,112.79,13.24
		c16.42,34.42-52.95,33.35-71.49,38.12c-18.53,4.77-144.03,54.55-176.34,29.12c-21.18-27.54,12.18-77.31,25.95-82.61
		c0,0,54.01-27.01,106.97-32.31c36.01-2.65,50.3-14.82,101.67-1.06"/>
</g>
<rect x="1330.86" y="990.4" class="st6" width="148.02" height="45.67"/>
<text transform="matrix(1 0 0 1 1309.9255 1017.5895)" class="st3 st4 st7">Designed Toy</text>
<text transform="matrix(1 0 0 1 1309.9255 1055.6594)" class="st3 st4 st7">Story principle</text>
<rect x="399.62" y="990.4" class="st6" width="148.02" height="45.67"/>
<text transform="matrix(1 0 0 1 340.9066 1017.589)" class="st3 st4 st7">All the parts of a Teddy Bear</text>
</svg>
