<?xml version="1.0" encoding="utf-8"?>
<!-- Generator: Adobe Illustrator 23.1.1, SVG Export Plug-In . SVG Version: 6.00 Build 0)  -->
<svg version="1.1" id="Layer_1" xmlns="http://www.w3.org/2000/svg" xmlns:xlink="http://www.w3.org/1999/xlink" x="0px" y="0px"
	 viewBox="0 0 1920 1080" style="enable-background:new 0 0 1920 1080;" xml:space="preserve">
<style type="text/css">
	.st0{display:none;}
	.st1{display:inline;}
	.st2{fill:none;stroke:#FFFFFF;stroke-miterlimit:10;}
</style>
<g class="st0">
	<rect x="-6.06" y="1.34" class="st1" width="1928.57" height="1090.48"/>
</g>
<g id="Layer_3" class="st0">
</g>
<g id="Layer_6">
	<path class="st2" d="M950.13,525.48c0,0-41.02-1.69-52.86-22.84c0,0-30.03,18.18-38.91-27.07c-3.38-21.57,21.99-29.18,21.99-29.18
		s0.85-53.71,40.18-65.55c0,0-14.8-34.68,17.76-41.87c0,0,12.26,13.11,21.99,14.8c0,0-16.92,9.73,0.85,22.84
		s19.88-11.84,43.56,25.37c0,0,12.69,33.41,23.68,39.33c11,5.92,30.87-1.27,30.87-1.27s5.5,10.57,19.03,12.26s21.99-8.88,21.99-8.88
		s11-19.88,32.14-15.22c21.15,4.65,46.94,12.69,52.44,33.41s-24.11,32.56-24.11,32.56s49.9,26.22,67.67,55.4
		c0,0-0.85,11.42,22.41,14.8s32.99,17.34,41.87,32.56c0,0,5.5,7.19-6.77,11s-2.11,28.76-65.55,28.76c0,0-10.57,20.72-27.49-7.19
		c0,0-6.34,29.18-28.76,37.22s-49.06-13.96-49.06-13.96s39.75,46.52,30.45,73.59s-38.06,76.97-73.59,53.29
		c-13.32-13.32-11-52.02-11-52.02l0.42-24.11c0,0-26.22-41.02-27.91-50.33c0,0-24.11,0.85-32.56-12.69c0,0-24.53,26.22-38.06,17.76
		s-29.18-33.83-28.76-44.83s4.23-48.21,5.07-54.13S937,539.84,937,539.84s-15.22-8.88-6.34-11
		C939.56,526.75,950.13,525.48,950.13,525.48z"/>
	<path class="st2" d="M1125.21,423.98c0,0,7.19-20.3,9.73-21.99s-0.42-33.41-9.73-38.91c0,0,2.11-22.41-14.38-31.3
		c0,0-10.15-16.49-10.15-21.15s-15.65-17.76-16.92-17.76s-21.57-11.42-32.56,1.69c-11,13.11-24.95-7.19-46.52,11.84
		s-2.11,26.22-2.11,26.22s-14.38,13.11,0.42,27.49s-13.53,24.53-13.53,24.53"/>
	<path class="st2" d="M1020.75,389.72c0,0,20.72-23.26,30.45-11.42C1037.25,392.68,1020.75,389.72,1020.75,389.72z"/>
	<path class="st2" d="M1079.54,366.04c0,0-5.07-17.76,24.95-12.26C1092.65,365.2,1079.54,366.04,1079.54,366.04z"/>
	<path class="st2" d="M1007.64,383.38c0,0,11.42-26.22,41.44-19.88"/>
	<path class="st2" d="M1071.93,352.51c0,0,11-19.88,33.41-17.34"/>
	<path class="st2" d="M1058.39,395.22c0,0-2.54,9.73,11.42,6.77c0,0,2.96-6.34,7.61-4.23"/>
	<path class="st2" d="M1082.92,396.07c0,0,4.65-8.04,6.77-3.81c2.11,4.23,6.77-5.5,0.42-11.84c0,0,25.8,22.1,27.91,45.25"/>
	<path class="st2" d="M1059.24,440.05c0.42-25.59-3.28-33.41-3.28-33.41"/>
	<path class="st2" d="M1060.72,425.99c0,0,3.33-2.06,12.37-8.72c3.49-3.81,8.72-5.71,11.42-6.82c2.7-1.11,8.25-2.54,15.86-2.38
		s7.93-1.43,7.93-1.43s-4.12,5.87-5.87,13.32c-1.74,7.45-15.86,8.41-19.67,9.2C1078.96,429.95,1067.22,428.21,1060.72,425.99z"/>
	<path class="st2" d="M1051.2,378.31c0,0,0.42,7.61-13.11,17.34"/>
	<path class="st2" d="M1079.54,366.04c0,0,0.85,6.34,27.07,2.96"/>
	<path class="st2" d="M1130.82,427.89c0,0,18.08-11.52,24.85-14.06s2.96-8.04,1.27-8.88c-1.69-0.85-1.69-12.69,6.34-12.26
		c8.04,0.42,18.19-23.68,6.77-24.53c-11.42-0.85,10.15-13.96,2.54-17.76c-7.61-3.81-15.65-2.54-22.41-0.42s8.04-16.49,11.84-19.45
		c3.81-2.96-1.27-18.61-14.38-13.96s-22.41,0.42-22.84-3.38c-0.42-3.81,18.61-13.53,8.46-23.26s-16.49-5.5-26.22-5.07
		c-9.73,0.42,9.3-23.68,3.38-27.91c-5.92-4.23-16.92-6.34-23.26-7.61s-18.18-4.23-24.11-7.61c-5.92-3.38-46.52-4.23-57.09,4.65
		c-10.57,8.88-13.96-12.69-38.06,11.42c-24.11,24.11-8.88,22.41-15.22,28.76c-6.34,6.34-15.22,37.64-15.65,41.87
		S938.3,339,938.3,339"/>
	<path class="st2" d="M950.13,525.48c0,0-19.45,29.18,11,47.79c-3.81,5.07-22.41,15.65-19.45,38.91"/>
	<path class="st2" d="M961.12,573.27c13.53-20.3,39.75-38.48,48.21-58.78c-2.54-25.8-27.07-66.82-27.07-66.82s4.23-18.18,21.15,6.77
		c16.92,24.95,10.57,19.88,16.49,20.3c5.92,0.42,8.88-16.07,8.46-19.88s-1.27-11.42,4.65-11s9.73,0.85,12.26,16.49
		c4.65,6.34,3.38-8.04,3.81-11.84c0.42-3.81,1.9-3.81,5.29-4.44s10.15,1.48,10.15,8.67s-2.11,15.86-0.42,16.49
		s6.98-8.88,11.21-13.11c4.23-4.23,13.74-2.11,13.53,5.5c4.65,0.85,6.34-4.23,23.68,0.85c11,5.07,11,11.84,21.99,17.76
		c11,5.92,26.22,13.96,26.22,13.96"/>
	<path class="st2" d="M1192.88,629.51c-12.16-27.07-31.93-40.81-31.93-40.81s-10.78-1.59-13.96-3.17
		c-3.17-1.59-31.72-30.13-41.23-40.6c-9.52-10.47-4.76-18.08-3.81-29.5c0.95-11.42,0-30.77-1.9-31.72s-15.86-11.1-15.86-11.1
		s-12.05-1.11-7.45,9.67s7.45,5.39,7.45,5.39s-2.85,10.47,0.32,14.11c3.17,3.65-21.73-22.36-36.16-20.3
		c-14.43,2.06-10.94,7.77-8.25,9.2s11.1,6.03,11.1,6.03s-17.29-8.56-22.84-3.81c-5.55,4.76,8.72,14.91,11.1,16.33
		c2.38,1.43-10.78-9.36-21.57-4.28c-10.78,5.07,12.53,18.71,12.53,18.71s-9.2-1.59-11.58,3.17s3.01,15.54,10.63,19.35
		c7.61,3.81,5.87,4.12,5.87,4.12s3.81,7.61,18.4,14.59l10.78,10.15c0,0,34.15,55.51,50.54,77.71"/>
	<polyline class="st2" points="1135.57,572.84 1149.53,572.53 1160.95,588.7 	"/>
	<path class="st2" d="M897.27,502.64c0,0,4.23-7.19-4.02-15.44s-14.06-35-12.9-40.81"/>
	<path class="st2" d="M882.15,461.83c1.9,10.78-11.74,12.37-11.74,12.37s13-5.39,19.35,9.83"/>
	<path class="st2" d="M924.97,377.14c-2.13,2.13,9.52-6.03,15.86-3.49c6.34,2.54-13.64-3.49-16.81-12.05
		C920.84,353.04,930.68,371.43,924.97,377.14z"/>
	<path class="st2" d="M1205.56,524.63c0,0,2.54-40.6-21.99-50.75"/>
	<path class="st2" d="M1028.84,381.9c0,0-2.85,5.07,2.85,6.98"/>
	<path class="st2" d="M1041.21,375.08c0,0,9.04,1.43,5.87,6.5"/>
	<path class="st2" d="M1082.13,356.05c0,0-4.76,7.93,2.54,8.72"/>
	<path class="st2" d="M1094.5,352.56c0,0,5.55,1.59,4.6,5.39"/>
</g>
<g id="Layer_7">
</g>
<g id="Layer_4">
</g>
<g id="Layer_5">
</g>
</svg>
