<?xml version="1.0" encoding="utf-8"?>
<!-- Generator: Adobe Illustrator 23.1.1, SVG Export Plug-In . SVG Version: 6.00 Build 0)  -->
<svg version="1.1" id="Layer_1" xmlns="http://www.w3.org/2000/svg" xmlns:xlink="http://www.w3.org/1999/xlink" x="0px" y="0px"
	 viewBox="0 0 1920 1080" style="enable-background:new 0 0 1920 1080;" xml:space="preserve">
<style type="text/css">
	.st0{display:none;}
	.st1{display:inline;}
	.st2{fill:none;stroke:#FFFFFF;stroke-miterlimit:10;}
	.st3{fill:none;}
	.st4{fill:#FFFFFF;}
	.st5{font-family:'OpenSans-Light';}
	.st6{font-size:31.7289px;}
</style>
<g class="st0">
	<rect x="2.04" y="-6.56" class="st1" width="1928.57" height="1090.48"/>
</g>
<g id="Layer_3" class="st0">
</g>
<path class="st2" d="M1241.24,469.69c0,0-44.07-22.85-48.96-66.91s-13.06-85.68-13.06-85.68s-42.43-49.78-19.58-96.29
	c22.85-46.51,65.28-62.83,82.42-50.59c12.24,4.08,2.45-29.38,116.69-35.09c44.07-5.71,90.58,8.16,90.58,8.16s32.64-13.87,79.15,20.4
	s27.74,93.03,25.3,101.19s20.4,55.49,6.53,156.68c-4.08,23.66,57.94,88.13,62.02,93.03c4.08,4.9,94.66,140.36,68.55,200.74
	s-69.36,52.23-86.5-13.06s-20.4-133.83-20.4-133.83l-0.82,53.04c0,0,36.72,137.09,37.54,169.73s26.11,92.21-33.46,137.91
	c-58.75,31.01-133.01,15.5-140.36,6.53c-7.34-8.98-37.54-22.85-26.93-76.71c4.08-23.66,10.61-43.25,10.61-43.25l-13.06-13.87
	c0,0-20.4,40.8-35.91,37.54c0,0,5.71,86.5-36.72,106.9c-42.43,20.4-150.96,23.66-161.57-36.72c-11.42-41.62-15.5-57.12-4.08-75.07
	c8.16-17.14,11.42-50.59,11.42-50.59s-39.99,22.85-53.04-24.48c-13.06-47.33-16.32-107.71-4.9-141.17
	c11.42-33.46,39.17-76.71,69.36-97.11C1232.26,500.69,1238.79,489.27,1241.24,469.69z"/>
<path class="st2" d="M1325.56,275.74c0,0-10.34-9.79-29.92,7.07c-11.97,13.6-3.81,36.99,3.81,39.17s19.58,5.44,33.18-5.98
	C1346.23,304.58,1338.61,285.54,1325.56,275.74z"/>
<path class="st2" d="M1501.82,242.02c-10.47,2.86-15.49,17.72-6.53,39.71c5.98,14.69,21.22,15.78,26.11,11.97
	C1532.96,288.12,1530.92,237.94,1501.82,242.02z"/>
<path class="st2" d="M1414.64,335.04c0,0,35.5-4.9,39.99,15.1c4.49,19.99-10.61,32.23-21.22,32.23s-36.31-6.53-39.17-15.91
	C1391.38,357.07,1397.91,341.98,1414.64,335.04z"/>
<path class="st2" d="M1241.24,469.69c0,0,68.55,10.61,104.99-6.8c0,0,75.07,25.02,139.81-10.88c0,0,62.02,1.63,73.99-22.85"/>
<path class="st2" d="M1241.78,570.6c0,0-17.95,35.36-15.78,46.79s1.09,75.62,0,79.97s-5.98,81.6-35.36,86.5"/>
<path class="st2" d="M1417.5,801.81c0,0-75.62-17.95-89.76-36.45s-53.31-39.71-107.17-34.82"/>
<path class="st2" d="M1430.55,815.68c0,0,35.36-47.6,50.05-51.95c14.69-4.35,39.17-11.97,56.03-11.97s72.9-19.04,72.9-19.04"/>
<path class="st2" d="M1367.45,325.79c0,0-42.43,47.87-18.5,85.41s39.17,31.55,39.17,31.55"/>
<path class="st2" d="M1343.51,302.4c0,0,64.74-53.86,134.92-27.74"/>
<path class="st2" d="M1480.6,429.7c0,0,39.71-42.98,16.32-98.47"/>
<path class="st2" d="M1303.8,354.63c0,0-3.26,77.25,14.69,91.94"/>
<path class="st2" d="M1482.23,440.04c0,0,48.42-28.83,41.35-103.91"/>
<path class="st2" d="M1172.69,249.63c6.53-10.34,16.86-15.78,22.3-8.7c5.44,7.07,9.79-11.97,8.7-25.02"/>
<path class="st2" d="M1502.91,163.13c0,0,4.9,19.58,9.25,21.76s19.04,9.25,19.58,27.2"/>
<rect x="1330.86" y="990.4" class="st3" width="148.02" height="45.67"/>
<text transform="matrix(1 0 0 1 1309.9255 1015.6523)" class="st4 st5 st6">First Impression </text>
<text transform="matrix(1 0 0 1 1309.9255 1050.5537)" class="st4 st5 st6">Principle</text>
<rect x="399.62" y="990.4" class="st3" width="148.02" height="45.67"/>
<g id="Layer_4">
	<path class="st2" d="M486.24,171.73c0,0,28.57-13.25,41.82-14.73s1.47-12.08,40.35-2.65c7.36-4.12,15.02-7.36,20.32-10.9
		c5.3-3.53,25.03-4.71,27.68,17.67c0.59,2.36-3.83,5.3-3.83,5.3s5.89-1.47,0.59,15.31s-5.3,16.79-5.3,16.79s-1.47,0.88,2.06,10.01
		c3.53,9.13,9.42,40.35-3.24,53.31c-2.06,19.14-18.26,53.6-20.03,64.79c0,0,22.19,17.47,27.1,86.59
		c4.91,106.81,17.47,102.89,24.15,133.91c2.36,36.52-12.96,61.26-61.26,64.79c-4.32,9.82,23.17,55.37,32.2,69.11
		s21.6,40.84,14.53,78.15c-6.68,24.35,18.46,11.39,12.96,115.45c5.4,19.83,25.87,29.11,29.99,30.29s18.21,0.44,22.63,19l-5.89-1.37
		c0,0,3.14,7.26,2.75,8.84s-2.55-3.34-5.69-3.73s-6.28-0.39-6.28-0.39s4.91,1.37,5.11,5.5c0.2,4.12-0.98,5.3-0.98,5.3
		s-0.79-8.44-5.5-8.84c-4.71-0.39-4.52,2.55-4.52,2.55l0.2,7.66c0,0-1.37-5.89-5.1-6.87s-5.3,4.32-6.87,3.34s-2.75-2.36-2.75-2.36
		l1.57,5.11c0,0-6.68-0.59-8.25-2.75s-77.16-1.57-74.02-23.95s2.75-29.45-4.32-42.8s-89.53-62.05-95.03-62.83
		s-33.38,42.02-107.6,43.59c-21.6,0.39-30.24,73.04-30.24,73.04s-35.34,12.57-42.02,12.96s-6.38-4.17-6.38-4.17l-2.36,8.98
		l-2.8-7.36l-5.6-0.59l-5.6,7.8l-2.5-7.66l-3.68,0.29l-7.36,7.36l1.62-9.72l-6.48,1.03l-6.18,6.77c0,0-4.27-6.92,1.91-9.28
		c6.18-2.36,0.64-16.64,20.27-23.32s11.78-39.66,17.67-56.94s18.85-37.31,21.21-48.69c2.36-11.39-5.89-35.34,5.5-80.5
		c8.64-32.59,21.6-34.16,22.38-43.2l11-41.23c0,0-20.42-14.92-20.42-47.12s3.34-35.54-2.55-53.01s1.37-85.41,4.32-96.41
		s21.79-43.2,24.35-55.57c2.55-12.37,10.01-42.61,14.33-47.91c4.32-5.3,26.9-32.4,30.83-41.04s6.48-39.27,23.56-57.14
		c8.44-15.12,21.01-39.07,34.95-44.37c0,0-2.75-20.62,6.28-27.49C474.95,159.36,486.24,171.73,486.24,171.73z"/>
	<path class="st2" d="M548.97,201.57c0,0,5.5-29.84,39.47-34.36c34.36,0.79,11.98,40.64,8.64,46.93c0,0-13.35,18.06-15.9,27.29
		s3.93,4.71-0.59,11c-4.52,6.28-2.75,15.12-2.75,15.12s-9.82,11.39-25.13-3.34s-13.74-16.49-10.6-19.63s-0.2-17.08,0.98-19.24
		C544.26,223.17,544.66,208.05,548.97,201.57z"/>
	<path class="st2" d="M558.6,159.16c0,0-10.6,10.01-11.58,17.87s-7.26-8.25-10.41-7.46S547.01,153.47,558.6,159.16z"/>
	<path class="st2" d="M468.67,195.49c0,0,10.01-22.78,17.57-23.76"/>
	<path class="st2" d="M461.4,178.01c0.79,0.2,12.57-2.36,14.73,2.75"/>
	<path class="st2" d="M470.24,168.59c0,0,1.77,8.64,5.89,10.6"/>
	<path class="st2" d="M569.74,176.15c0,0-2.95,8.98-0.59,11.49c2.36,2.5,1.77-8.69,5.89-10.6
		C579.16,175.11,574.45,171.43,569.74,176.15z"/>
	<path class="st2" d="M582.4,172.17l-0.74,4.42l3.68-0.59c0,0,10.01,2.06,10.16,3.53c0.15,1.47,0.15,3.68,0.15,3.68l3.98-3.24
		C599.63,179.97,596.69,172.91,582.4,172.17z"/>
	<path class="st2" d="M596.98,186.75c0,0,1.77,10.01-0.74,11.63c-2.5,1.62,5.89-0.88,6.18-9.42
		C601.25,183.07,596.98,186.75,596.98,186.75z"/>
	<path class="st2" d="M556.24,241.82l1.18-9.03l3.34,8.84l13.94,6.09l3.53-2.75l-1.37,5.69
		C576.86,250.66,564.49,246.73,556.24,241.82z"/>
	<path class="st2" d="M560.95,193.72c0,0-14.33,19.83-7.07,38.68"/>
	<path class="st2" d="M589.03,201.77c0,0-13.35,31.61-13.74,39.27"/>
	<path class="st2" d="M401.91,307.99c0,0,30.24,43.2,51.05,42.41s77.75,3.53,85.61-0.79s29.45-1.96,33.77-7.07"/>
	<path class="st2" d="M582.16,280.5c-1.57,0-41.23,33.38-41.23,33.38"/>
	<path class="st2" d="M478.88,218.85c0,0,5.5,54.58,14.14,60.08s25.52,11.39,25.52,11.39"/>
	<path class="st2" d="M372.85,473.31c0,0-3.14,84.82,20.81,111.52c9.82,19.24,12.17,34.56,12.17,34.56s6.28,9.03,10.21,4.32
		s-5.11,10.6-12.96,5.5s-0.2,8.15,5.99,6.68c6.18-1.47-3.98,8.1-10.6,4.42c-6.63-3.68-3.24,1.47-3.24,1.47s5.15,2.95,7.07,1.77
		c1.91-1.18-3.68,4.42-10.46,1.77c-6.77-2.65-6.77,0-6.77,0s13.99,1.03,12.52,2.21s-13.4,1.91-16.64-0.29
		c-3.24-2.21-26.75-3.58-34.8-11.73"/>
	<path class="st2" d="M408.19,496.88c0,0-22.97,48.89-23.56,69.51"/>
	<path class="st2" d="M576.66,611.94c0,0-14.43,6.58-12.37-15.22c2.06-21.79,15.32-38.88,16.79-48.6s5.6-70.98,1.77-86.59"/>
	<path class="st2" d="M556.63,484.8c0,0.88,24.15,41.82,20.03,75.69"/>
	<path class="st2" d="M396.41,451.52c0,0,49.48-47.32,53.01-74.22"/>
	<path class="st2" d="M543.08,377.3c0,0,20.32,54.78,31.81,68.92"/>
	<path class="st2" d="M367.35,644.92c0,0,75.79,33.38,78.54,99.74"/>
	<path class="st2" d="M571.95,615.47c0,0-6.28,51.84-27.1,77.75s-48.3,72.65-43.59,110.74"/>
</g>
<text transform="matrix(1 0 0 1 367.9066 1015.6519)" class="st4 st5 st6">Real bear</text>
</svg>
